# xmcd
# 
# Track frame offsets:
#     150
#     12005
#     29100
#     45452
#     56272
#     68935
#     87497
#     98825
#     106167
#     120620
#     138217
#     158490
# 
# Disc length: 2335
# 
# Revision: 15
# Processed by: cddbd v1.5.2PL0 Copyright (c) Steve Scherf et al.
# Submitted via: fre:ac v1.0.17
# 
DISCID=91091d0c
DTITLE=Enya - A Day Without Rain (Japan)
DYEAR=2000
DGENRE=Celtic
TTITLE0=A Day Without Rain
TTITLE1=Wild Child
TTITLE2=Only Time
TTITLE3=Tempus Vernum
TTITLE4=Deora Ar Mo Chroi
TTITLE5=Flora's Secret
TTITLE6=Fallen Embers
TTITLE7=Silver Inches
TTITLE8=Pilgrim
TTITLE9=One By One
TTITLE10=Isobella
TTITLE11=Lazy Days
EXTD=YEAR: 2000
EXTT0=
EXTT1=
EXTT2=
EXTT3=
EXTT4=
EXTT5=
EXTT6=
EXTT7=
EXTT8=
EXTT9=
EXTT10=
EXTT11=
PLAYORDER=
